<?xml version="1.0" encoding="UTF-8" standalone="no"?><svg xmlns="http://www.w3.org/2000/svg" xmlns:xlink="http://www.w3.org/1999/xlink" contentStyleType="text/css" height="912px" preserveAspectRatio="none" style="width:1072px;height:912px;background:#FFFFFF;" version="1.1" viewBox="0 0 1072 912" width="1072px" zoomAndPan="magnify"><defs/><g><!--MD5=[9e7b81964fef5651644fd89c33b588a7]
cluster RASA NLU--><g id="cluster_RASA NLU"><path d="M62,6 L132,6 A3.75,3.75 0 0 1 134.5,8.5 L141.5,29.6094 L321,29.6094 A2.5,2.5 0 0 1 323.5,32.1094 L323.5,176.5 A2.5,2.5 0 0 1 321,179 L62,179 A2.5,2.5 0 0 1 59.5,176.5 L59.5,8.5 A2.5,2.5 0 0 1 62,6 " fill="none" style="stroke:#000000;stroke-width:1.5;"/><line style="stroke:#000000;stroke-width:1.5;" x1="59.5" x2="141.5" y1="29.6094" y2="29.6094"/><text fill="#000000" font-family="sans-serif" font-size="14" font-weight="bold" lengthAdjust="spacing" textLength="69" x="63.5" y="22.5332">RASA NLU</text></g><!--MD5=[f10e292b7edaeb1c6c550bc0f276b05d]
cluster analyse_phrase--><g id="cluster_analyse_phrase"><polygon fill="none" points="83.5,60,93.5,50,299.5,50,299.5,145,289.5,155,83.5,155,83.5,60" style="stroke:#008000;stroke-width:1.0;"/><line style="stroke:#008000;stroke-width:1.0;" x1="289.5" x2="299.5" y1="60" y2="50"/><line style="stroke:#008000;stroke-width:1.0;" x1="83.5" x2="289.5" y1="60" y2="60"/><line style="stroke:#008000;stroke-width:1.0;" x1="289.5" x2="289.5" y1="60" y2="155"/><text fill="#000000" font-family="sans-serif" font-size="14" font-weight="bold" lengthAdjust="spacing" textLength="137" x="119" y="77.5332">Analyse de phrases</text></g><!--MD5=[78408ae409ae1074d97e21db64dce047]
cluster RASA Core--><g id="cluster_RASA Core"><path d="M27,262 L103,262 A3.75,3.75 0 0 1 105.5,264.5 L112.5,285.6094 L719,285.6094 A2.5,2.5 0 0 1 721.5,288.1094 L721.5,903 A2.5,2.5 0 0 1 719,905.5 L27,905.5 A2.5,2.5 0 0 1 24.5,903 L24.5,264.5 A2.5,2.5 0 0 1 27,262 " fill="none" style="stroke:#000000;stroke-width:1.5;"/><line style="stroke:#000000;stroke-width:1.5;" x1="24.5" x2="112.5" y1="285.6094" y2="285.6094"/><text fill="#000000" font-family="sans-serif" font-size="14" font-weight="bold" lengthAdjust="spacing" textLength="75" x="28.5" y="278.5332">RASA Core</text></g><!--MD5=[161e547f3cddf90819771826943fe6c0]
cluster retrait_données--><g id="cluster_retrait_données"><polygon fill="none" points="56.5,324,66.5,314,387.5,314,387.5,863.5,377.5,873.5,56.5,873.5,56.5,324" style="stroke:#008000;stroke-width:1.0;"/><line style="stroke:#008000;stroke-width:1.0;" x1="377.5" x2="387.5" y1="324" y2="314"/><line style="stroke:#008000;stroke-width:1.0;" x1="56.5" x2="377.5" y1="324" y2="324"/><line style="stroke:#008000;stroke-width:1.0;" x1="377.5" x2="377.5" y1="324" y2="873.5"/><text fill="#000000" font-family="sans-serif" font-size="14" font-weight="bold" lengthAdjust="spacing" textLength="135" x="150.5" y="341.5332">Retrait de données</text></g><!--MD5=[e38ab519d4ee1ffdc89a09ca4c093995]
cluster retrait_reponses--><g id="cluster_retrait_reponses"><polygon fill="none" points="427.5,543,437.5,533,689.5,533,689.5,855,679.5,865,427.5,865,427.5,543" style="stroke:#008000;stroke-width:1.0;"/><line style="stroke:#008000;stroke-width:1.0;" x1="679.5" x2="689.5" y1="543" y2="533"/><line style="stroke:#008000;stroke-width:1.0;" x1="427.5" x2="679.5" y1="543" y2="543"/><line style="stroke:#008000;stroke-width:1.0;" x1="679.5" x2="679.5" y1="543" y2="865"/><text fill="#000000" font-family="sans-serif" font-size="14" font-weight="bold" lengthAdjust="spacing" textLength="91" x="509" y="560.5332">Construction</text><text fill="#000000" font-family="sans-serif" font-size="14" font-weight="bold" lengthAdjust="spacing" textLength="97" x="508" y="578.1426">de la réponse</text></g><!--MD5=[478e0561574fa97700c14fd20e5b2987]
entity analyse_question--><g id="elem_analyse_question"><rect fill="#F1F1F1" height="47.6094" rx="2.5" ry="2.5" style="stroke:#181818;stroke-width:0.5;" width="183" x="100" y="91"/><rect fill="#F1F1F1" height="10" style="stroke:#181818;stroke-width:0.5;" width="15" x="263" y="96"/><rect fill="#F1F1F1" height="2" style="stroke:#181818;stroke-width:0.5;" width="4" x="261" y="98"/><rect fill="#F1F1F1" height="2" style="stroke:#181818;stroke-width:0.5;" width="4" x="261" y="102"/><text fill="#000000" font-family="sans-serif" font-size="14" lengthAdjust="spacing" textLength="143" x="115" y="125.5332">Analyse de la question</text></g><!--MD5=[1a60479fc17f69273d2789db4b99a06c]
entity traitement--><g id="elem_traitement"><rect fill="#F1F1F1" height="65.2188" rx="2.5" ry="2.5" style="stroke:#181818;stroke-width:0.5;" width="221" x="81" y="363"/><rect fill="#F1F1F1" height="10" style="stroke:#181818;stroke-width:0.5;" width="15" x="282" y="368"/><rect fill="#F1F1F1" height="2" style="stroke:#181818;stroke-width:0.5;" width="4" x="280" y="370"/><rect fill="#F1F1F1" height="2" style="stroke:#181818;stroke-width:0.5;" width="4" x="280" y="374"/><text fill="#000000" font-family="sans-serif" font-size="14" lengthAdjust="spacing" textLength="181" x="96" y="397.5332">Traitement conditionnel pour</text><text fill="#000000" font-family="sans-serif" font-size="14" lengthAdjust="spacing" textLength="122" x="96" y="415.1426">la prise de décision</text></g><!--MD5=[5ecabc742a8f8de94760f01d99983944]
entity db_local--><g id="elem_db_local"><path d="M138,601.5 C138,591.5 191.5,591.5 191.5,591.5 C191.5,591.5 245,591.5 245,601.5 L245,663.3281 C245,673.3281 191.5,673.3281 191.5,673.3281 C191.5,673.3281 138,673.3281 138,663.3281 L138,601.5 " fill="#FFE0E0" style="stroke:#000000;stroke-width:0.5;"/><path d="M138,601.5 C138,611.5 191.5,611.5 191.5,611.5 C191.5,611.5 245,611.5 245,601.5 " fill="none" style="stroke:#000000;stroke-width:0.5;"/><text fill="#000000" font-family="sans-serif" font-size="14" font-style="italic" lengthAdjust="spacing" textLength="45" x="169" y="630.0332">«local»</text><text fill="#000000" font-family="sans-serif" font-size="14" lengthAdjust="spacing" textLength="65" x="148" y="647.6426">graphe de</text><text fill="#000000" font-family="sans-serif" font-size="14" lengthAdjust="spacing" textLength="87" x="148" y="665.252">connaissance</text></g><!--MD5=[a563ebd703b53a13b143b9d78691c837]
entity db_pedia--><g id="elem_db_pedia"><path d="M81,777.5 C81,767.5 134.5,767.5 134.5,767.5 C134.5,767.5 188,767.5 188,777.5 L188,839.3281 C188,849.3281 134.5,849.3281 134.5,849.3281 C134.5,849.3281 81,849.3281 81,839.3281 L81,777.5 " fill="#DAA520" style="stroke:#000000;stroke-width:0.5;"/><path d="M81,777.5 C81,787.5 134.5,787.5 134.5,787.5 C134.5,787.5 188,787.5 188,777.5 " fill="none" style="stroke:#000000;stroke-width:0.5;"/><text fill="#000000" font-family="sans-serif" font-size="14" font-style="italic" lengthAdjust="spacing" textLength="67" x="101" y="806.0332">«dbpedia»</text><text fill="#000000" font-family="sans-serif" font-size="14" lengthAdjust="spacing" textLength="65" x="91" y="823.6426">graphe de</text><text fill="#000000" font-family="sans-serif" font-size="14" lengthAdjust="spacing" textLength="87" x="91" y="841.252">connaissance</text></g><!--MD5=[72399bfb954ffb1158073ed817e0da10]
entity osm--><g id="elem_osm"><path d="M223.5,777.5 C223.5,767.5 289.5,767.5 289.5,767.5 C289.5,767.5 355.5,767.5 355.5,777.5 L355.5,839.3281 C355.5,849.3281 289.5,849.3281 289.5,849.3281 C289.5,849.3281 223.5,849.3281 223.5,839.3281 L223.5,777.5 " fill="#D8BFD8" style="stroke:#000000;stroke-width:0.5;"/><path d="M223.5,777.5 C223.5,787.5 289.5,787.5 289.5,787.5 C289.5,787.5 355.5,787.5 355.5,777.5 " fill="none" style="stroke:#000000;stroke-width:0.5;"/><text fill="#000000" font-family="sans-serif" font-size="14" font-style="italic" lengthAdjust="spacing" textLength="112" x="233.5" y="806.0332">«openstreetMap»</text><text fill="#000000" font-family="sans-serif" font-size="14" lengthAdjust="spacing" textLength="65" x="246" y="823.6426">graphe de</text><text fill="#000000" font-family="sans-serif" font-size="14" lengthAdjust="spacing" textLength="87" x="246" y="841.252">connaissance</text></g><!--MD5=[a2a1127a9e0c3d5a4af797120761d109]
entity ad--><g id="elem_ad"><rect fill="#F1F1F1" height="65.2188" rx="2.5" ry="2.5" style="stroke:#181818;stroke-width:0.5;" width="169" x="478" y="600"/><rect fill="#F1F1F1" height="10" style="stroke:#181818;stroke-width:0.5;" width="15" x="627" y="605"/><rect fill="#F1F1F1" height="2" style="stroke:#181818;stroke-width:0.5;" width="4" x="625" y="607"/><rect fill="#F1F1F1" height="2" style="stroke:#181818;stroke-width:0.5;" width="4" x="625" y="611"/><text fill="#000000" font-family="sans-serif" font-size="14" lengthAdjust="spacing" textLength="129" x="493" y="634.5332">Analyse + traitement</text><text fill="#000000" font-family="sans-serif" font-size="14" lengthAdjust="spacing" textLength="82" x="493" y="652.1426">des données</text></g><!--MD5=[c326229a2ffeb98b28a0dba81c32a3dd]
entity fr--><g id="elem_fr"><rect fill="#F1F1F1" height="65.2188" rx="2.5" ry="2.5" style="stroke:#181818;stroke-width:0.5;" width="206" x="459.5" y="776"/><rect fill="#F1F1F1" height="10" style="stroke:#181818;stroke-width:0.5;" width="15" x="645.5" y="781"/><rect fill="#F1F1F1" height="2" style="stroke:#181818;stroke-width:0.5;" width="4" x="643.5" y="783"/><rect fill="#F1F1F1" height="2" style="stroke:#181818;stroke-width:0.5;" width="4" x="643.5" y="787"/><text fill="#000000" font-family="sans-serif" font-size="14" lengthAdjust="spacing" textLength="166" x="474.5" y="810.5332">Formulation de la réponse</text><text fill="#000000" font-family="sans-serif" font-size="14" lengthAdjust="spacing" textLength="119" x="474.5" y="828.1426">en langage naturel</text></g><!--MD5=[1e5d867ae92f7bc24a16b161b744b158]
entity question--><g id="elem_question"><ellipse cx="34.5" cy="115" fill="#F1F1F1" rx="8" ry="8" style="stroke:#181818;stroke-width:0.5;"/><text fill="#000000" font-family="sans-serif" font-size="14" lengthAdjust="spacing" textLength="57" x="6" y="146.5332">Question</text></g><!--MD5=[c70ac26d1179fc16e0ba716a936fc792]
entity reponse--><g id="elem_reponse"><ellipse cx="746.5" cy="808.5" fill="#F1F1F1" rx="8" ry="8" style="stroke:#181818;stroke-width:0.5;"/><text fill="#000000" font-family="sans-serif" font-size="14" lengthAdjust="spacing" textLength="57" x="718" y="840.0332">Réponse</text></g><g id="elem_GMN22"><path d="M737.5,603 L737.5,662.0547 L1065.5,662.0547 L1065.5,613 L1055.5,603 L737.5,603 " fill="#FEFFDD" style="stroke:#181818;stroke-width:0.5;"/><path d="M1055.5,603 L1055.5,613 L1065.5,613 L1055.5,603 " fill="#FEFFDD" style="stroke:#181818;stroke-width:1.0;"/><text fill="#000000" font-family="sans-serif" font-size="13" lengthAdjust="spacing" textLength="219" x="743.5" y="621.4951">Recherche d'information dans d'autres</text><text fill="#000000" font-family="sans-serif" font-size="13" lengthAdjust="spacing" textLength="307" x="743.5" y="637.8467">graphes de connaissances si la réponse ne se trouve</text><text fill="#000000" font-family="sans-serif" font-size="13" lengthAdjust="spacing" textLength="141" x="743.5" y="654.1982">pas dans le graphe local</text></g><!--MD5=[a578ca8d4fb33ced6c8bac306a4c6cc1]
link question to analyse_question--><g id="link_question_analyse_question"><path d="M43.7,115 C62.46,115 81.23,115 99.99,115 " fill="none" id="question-analyse_question" style="stroke:#181818;stroke-width:1.0;"/></g><!--MD5=[1af4358f0f9889b8ce3cf5a16df3c807]
link traitement to db_local--><g id="link_traitement_db_local"><path d="M185.33,428.3 C183.75,437.81 182.28,448.3 181.5,458 C177.98,501.57 181.65,551.39 185.49,586.43 " fill="none" id="traitement-to-db_local" style="stroke:#181818;stroke-width:1.0;stroke-dasharray:7.0,7.0;"/><polygon fill="#181818" points="186.06,591.5,189.0328,582.1105,185.5031,586.5311,181.0825,583.0015,186.06,591.5" style="stroke:#181818;stroke-width:1.0;"/><text fill="#000000" font-family="sans-serif" font-size="13" lengthAdjust="spacing" textLength="62" x="250.5" y="472.4951">Recherche</text><text fill="#000000" font-family="sans-serif" font-size="13" lengthAdjust="spacing" textLength="194" x="186.5" y="488.8467">d'informations/parcours de graphe</text><text fill="#000000" font-family="sans-serif" font-size="13" lengthAdjust="spacing" textLength="61" x="251" y="505.1982">(SPARQL)</text></g><!--MD5=[588791e9fa5ce93f2521bf0ac90ae4e6]
link db_local to GMN22--><g id="link_db_local_GMN22"><path d="M236.69,591.29 C283.06,552.03 359.22,495.61 437,472.5 C533.71,443.77 567.51,443.03 664,472.5 C747.68,498.06 828.56,564.1 870.93,602.88 " fill="none" id="db_local-GMN22" style="stroke:#181818;stroke-width:1.0;stroke-dasharray:7.0,7.0;"/></g><!--MD5=[978ffe2b090e9f433fbf9f2722341608]
link analyse_question to traitement--><g id="link_analyse_question_traitement"><path d="M191.5,139.27 C191.5,187.62 191.5,299.29 191.5,357.58 " fill="none" id="analyse_question-to-traitement" style="stroke:#181818;stroke-width:1.0;stroke-dasharray:7.0,7.0;"/><polygon fill="#181818" points="191.5,362.71,195.5,353.71,191.5,357.71,187.5,353.71,191.5,362.71" style="stroke:#181818;stroke-width:1.0;"/><text fill="#000000" font-family="sans-serif" font-size="13" lengthAdjust="spacing" textLength="80" x="272" y="209.4951">Détection des</text><text fill="#000000" font-family="sans-serif" font-size="13" lengthAdjust="spacing" textLength="99" x="262.5" y="225.8467">intentions/entités</text><text fill="#000000" font-family="sans-serif" font-size="13" lengthAdjust="spacing" textLength="239" x="192.5" y="242.1982">(DIETClassifier &amp;&amp; RegexEntityExtractor)</text></g><!--MD5=[b53d71927e8745cf49721ee5c3857fd8]
link db_local to osm--><g id="link_db_local_osm"><path d="M211.11,673.8 C215.46,683.42 219.85,693.74 223.5,703.5 C229.01,718.26 226.22,723.53 233.5,737.5 C237.99,746.12 243.62,754.7 249.57,762.74 " fill="none" id="db_local-to-osm" style="stroke:#181818;stroke-width:1.0;stroke-dasharray:7.0,7.0;"/><polygon fill="#181818" points="252.9,767.15,250.6781,757.555,249.8909,763.1569,244.2891,762.3696,252.9,767.15" style="stroke:#181818;stroke-width:1.0;"/></g><!--MD5=[474ef83a647b23cc1e2299d09cc33e12]
link osm to db_local--><g id="link_osm_db_local"><path d="M266.89,767.36 C251.95,740.83 232.35,706.02 216.87,678.55 " fill="none" id="osm-to-db_local" style="stroke:#181818;stroke-width:1.0;stroke-dasharray:7.0,7.0;"/><polygon fill="#181818" points="214.23,673.86,215.1667,683.6642,216.6861,678.2152,222.1351,679.7345,214.23,673.86" style="stroke:#181818;stroke-width:1.0;"/><text fill="#000000" font-family="sans-serif" font-size="13" lengthAdjust="spacing" textLength="84" x="249.5" y="717.9951">INSERT DATA</text><text fill="#000000" font-family="sans-serif" font-size="13" lengthAdjust="spacing" textLength="61" x="261" y="734.3467">(SPARQL)</text></g><!--MD5=[eb3d6182b4d83e6c0d7fc9a9ec90f767]
link db_pedia to db_local--><g id="link_db_pedia_db_local"><path d="M127.69,767.39 C125.92,747.61 126.21,723.71 133.5,703.5 C136.71,694.61 141.59,686.04 147.19,678.14 " fill="none" id="db_pedia-to-db_local" style="stroke:#181818;stroke-width:1.0;stroke-dasharray:7.0,7.0;"/><polygon fill="#181818" points="150.36,673.82,141.8099,678.7082,147.4013,677.8507,148.2589,683.4421,150.36,673.82" style="stroke:#181818;stroke-width:1.0;"/><text fill="#000000" font-family="sans-serif" font-size="13" lengthAdjust="spacing" textLength="84" x="134.5" y="717.9951">INSERT DATA</text><text fill="#000000" font-family="sans-serif" font-size="13" lengthAdjust="spacing" textLength="61" x="146" y="734.3467">(SPARQL)</text></g><!--MD5=[434e80a8a9129117b95a939068005050]
link db_local to db_pedia--><g id="link_db_local_db_pedia"><path d="M138.8,673.54 C130.53,682.43 123.18,692.52 118.5,703.5 C110.67,721.85 112.44,743.48 117.03,762.24 " fill="none" id="db_local-to-db_pedia" style="stroke:#181818;stroke-width:1.0;stroke-dasharray:7.0,7.0;"/><polygon fill="#181818" points="118.4,767.45,119.9764,757.7281,117.1268,762.6148,112.2401,759.7652,118.4,767.45" style="stroke:#181818;stroke-width:1.0;"/></g><!--MD5=[82b6887aab3f1da571616538579332a8]
link fr to reponse--><g id="link_fr_reponse"><path d="M665.64,808.5 C689.54,808.5 713.44,808.5 737.34,808.5 " fill="none" id="fr-reponse" style="stroke:#181818;stroke-width:1.0;"/></g><!--MD5=[7cf333d1a8b27329064842c01be53928]
link ad to fr--><g id="link_ad_fr"><path d="M562.5,665.01 C562.5,694.73 562.5,739.27 562.5,770.63 " fill="none" id="ad-to-fr" style="stroke:#181818;stroke-width:1.0;stroke-dasharray:7.0,7.0;"/><polygon fill="#181818" points="562.5,775.93,566.5,766.93,562.5,770.93,558.5,766.93,562.5,775.93" style="stroke:#181818;stroke-width:1.0;"/></g><!--MD5=[ad20e359875dfc7c68bddfec7b48508d]
link retrait_données to retrait_reponses--><g id="link_retrait_données_retrait_reponses"><path d="M387.6621,430.748 C387.7402,431.0756 387.8187,431.4049 387.8976,431.736 C388.0554,432.3983 388.2149,433.0675 388.3759,433.7434 C393.5306,455.375 400.3413,483.9562 407.1775,512.645 C414.0138,541.3338 420.8756,570.13 426.1328,592.1916 C426.4614,593.5704 426.7837,594.923 427.0993,596.2475 C427.1782,596.5787 427.2567,596.908 427.3348,597.2357 C427.3738,597.3995 427.4128,597.5628 427.4516,597.7258 " fill="none" id="retrait_données-to-retrait_reponses" style="stroke:#181818;stroke-width:1.0;stroke-dasharray:7.0,7.0;"/><polygon fill="#181818" points="427.4516,597.7258,429.2564,588.0437,426.2926,592.8619,421.4743,589.8981,427.4516,597.7258" style="stroke:#181818;stroke-width:1.0;"/><text fill="#000000" font-family="sans-serif" font-size="13" lengthAdjust="spacing" textLength="119" x="406.5" y="488.9951">Données récupérées</text></g><!--MD5=[2573aa1a3715b03456dbee5b61306d2c]
@startuml components_diagram
() "Question" as question
() "Réponse" as reponse

skinparam node {
    borderColor Green
}

skinparam database {
    borderColor Black
    BackgroundColor<<dbpedia>> GoldenRod
    BackgroundColor<<local>> IMPLEMENTATION
    BackgroundColor<<openstreetMap>> Thistle
}

' skinparam databaseBackgroundColor Aqua



package "RASA NLU" {
    node "Analyse de phrases" as analyse_phrase {
        [Analyse de la question] as analyse_question
        question - analyse_question
    }

}

package "RASA Core" {
    node "Retrait de données" as retrait_données {
        [Traitement conditionnel pour\nla prise de décision] as traitement
        database "graphe de\nconnaissance" as db_local <<local>>
        traitement ..> db_local : Recherche\n d'informations/parcours de graphe\n(SPARQL)
        database "graphe de\nconnaissance" as db_pedia <<dbpedia>>
       database "graphe de \nconnaissance" as osm <<openstreetMap>>
    }

    node "Construction\n de la réponse" as retrait_reponses {
        [Analyse + traitement\ndes données] as ad
        [Formulation de la réponse\nen langage naturel] as fr
    }
    
}

note right of db_local : Recherche d'information dans d'autres\ngraphes de connaissances si la réponse ne se trouve\npas dans le graphe local


analyse_question ..> traitement : Détection des\nintentions/entités\n(DIETClassifier && RegexEntityExtractor)
db_local ..> osm
osm ..> db_local : INSERT DATA\n(SPARQL)
db_pedia ..> db_local : INSERT DATA\n(SPARQL)
db_local ..> db_pedia
fr - reponse
ad ..> fr
retrait_données ..> retrait_reponses : Données récupérées




@enduml

@startuml components_diagram
() "Question" as question
() "Réponse" as reponse

skinparam node {
    borderColor Green
}

skinparam database {
    borderColor Black
    BackgroundColor<<dbpedia>> GoldenRod
    BackgroundColor<<local>> IMPLEMENTATION
    BackgroundColor<<openstreetMap>> Thistle
}




package "RASA NLU" {
    node "Analyse de phrases" as analyse_phrase {
        [Analyse de la question] as analyse_question
        question - analyse_question
    }

}

package "RASA Core" {
    node "Retrait de données" as retrait_données {
        [Traitement conditionnel pour\nla prise de décision] as traitement
        database "graphe de\nconnaissance" as db_local <<local>>
        traitement ..> db_local : Recherche\n d'informations/parcours de graphe\n(SPARQL)
        database "graphe de\nconnaissance" as db_pedia <<dbpedia>>
       database "graphe de \nconnaissance" as osm <<openstreetMap>>
    }

    node "Construction\n de la réponse" as retrait_reponses {
        [Analyse + traitement\ndes données] as ad
        [Formulation de la réponse\nen langage naturel] as fr
    }
    
}

note right of db_local : Recherche d'information dans d'autres\ngraphes de connaissances si la réponse ne se trouve\npas dans le graphe local


analyse_question ..> traitement : Détection des\nintentions/entités\n(DIETClassifier && RegexEntityExtractor)
db_local ..> osm
osm ..> db_local : INSERT DATA\n(SPARQL)
db_pedia ..> db_local : INSERT DATA\n(SPARQL)
db_local ..> db_pedia
fr - reponse
ad ..> fr
retrait_données ..> retrait_reponses : Données récupérées




@enduml

PlantUML version 1.2022.7(Mon Aug 22 19:01:30 CEST 2022)
(GPL source distribution)
Java Runtime: Java(TM) SE Runtime Environment
JVM: Java HotSpot(TM) 64-Bit Server VM
Default Encoding: UTF-8
Language: fr
Country: CH
--></g></svg>